<?xml version="1.0" standalone="no"?>
<!DOCTYPE svg PUBLIC "-//W3C//DTD SVG 20010904//EN"
 "http://www.w3.org/TR/2001/REC-SVG-20010904/DTD/svg10.dtd">
<svg version="1.0" xmlns="http://www.w3.org/2000/svg"
 width="260.000000pt" height="260.000000pt" viewBox="0 0 260.000000 260.000000"
 preserveAspectRatio="xMidYMid meet">
<metadata>
Created by potrace 1.11, written by Peter Selinger 2001-2013
</metadata>
<g transform="translate(0.000000,260.000000) scale(0.100000,-0.100000)"
fill="#000000" stroke="none">
<path d="M970 2468 c-108 -16 -204 -87 -233 -171 -29 -86 -2 -140 67 -135 40
3 42 5 76 70 46 89 68 109 122 115 95 11 168 -63 139 -140 -5 -13 -48 -61 -95
-107 -93 -91 -122 -146 -113 -215 6 -45 20 -62 58 -67 43 -7 72 20 87 80 11
42 26 61 101 134 108 103 125 133 125 215 -1 74 -29 126 -96 170 -71 48 -146
64 -238 51z"/>
<path d="M1489 2444 c-21 -23 -24 -35 -24 -102 1 -82 14 -327 20 -358 2 -11 4
-32 4 -47 1 -15 12 -39 25 -52 41 -41 82 -12 92 65 33 278 37 454 11 494 -25
37 -93 37 -128 0z"/>
<path d="M963 1748 c-25 -12 -44 -52 -41 -86 6 -67 101 -97 148 -47 17 18 23
35 22 62 -2 66 -67 101 -129 71z"/>
<path d="M1503 1748 c-26 -12 -47 -68 -38 -98 11 -35 46 -60 84 -60 43 1 66
17 81 54 28 76 -51 141 -127 104z"/>
<path d="M685 1435 c-223 -49 -396 -233 -436 -462 -18 -102 -7 -454 17 -523
60 -179 190 -308 379 -377 46 -16 99 -18 629 -21 382 -2 597 1 630 8 184 38
336 156 412 320 44 96 49 134 49 375 0 249 -3 271 -63 395 -36 73 -159 197
-232 231 -140 68 -97 64 -740 66 -456 1 -598 -1 -645 -12z m1218 -140 c81 -21
132 -49 194 -107 59 -57 106 -141 123 -224 7 -34 10 -127 8 -247 -3 -171 -6
-198 -27 -250 -43 -108 -139 -204 -248 -248 l-58 -24 -569 -3 c-612 -3 -617
-2 -720 50 -56 29 -132 103 -165 162 -52 91 -60 138 -60 346 0 198 8 249 51
334 27 52 103 132 156 163 104 61 105 62 707 62 460 1 559 -1 608 -14z"/>
<path d="M881 1052 c-76 -49 -75 -156 2 -202 64 -40 154 -13 182 54 14 33 14
45 0 96 -10 36 -59 71 -105 75 -29 2 -49 -4 -79 -23z"/>
<path d="M1602 1063 c-112 -54 -74 -233 50 -233 76 0 129 49 131 120 2 91 -98
153 -181 113z"/>
<path d="M839 679 c-31 -31 -23 -59 32 -111 95 -89 271 -157 407 -158 82 0
200 27 277 65 90 43 155 98 155 131 0 26 -32 64 -53 64 -7 0 -46 -22 -87 -49
-101 -65 -173 -88 -282 -89 -129 -1 -223 32 -322 113 -67 54 -98 63 -127 34z"/>
</g>
</svg>
